<svg xmlns="http://www.w3.org/2000/svg" viewBox="0 0 106 112" role="img" aria-label="FutureRoots">
  <defs>
    <linearGradient id="frShield" x1="0%" y1="0%" x2="100%" y2="100%">
      <stop offset="0%" stop-color="#1FA84D"/>
      <stop offset="100%" stop-color="#1E4FD8"/>
    </linearGradient>
  </defs>
  <!-- digital pixels drifting from the shield -->
  <rect x="76" y="1" width="9" height="9" fill="#2E6BE6"/>
  <rect x="88" y="8" width="7" height="7" fill="#2E6BE6"/>
  <rect x="80" y="14" width="5" height="5" fill="#2E6BE6"/>
  <rect x="94" y="18" width="4" height="4" fill="#2E6BE6"/>
  <!-- shield -->
  <path d="M50 8 C61 14 74 18 87 20 L87 56 C87 80 71 96 50 104 C29 96 13 80 13 56 L13 20 C26 18 39 14 50 8 Z" fill="url(#frShield)"/>
  <!-- adult -->
  <circle cx="32" cy="35" r="8.5" fill="#fff"/>
  <path d="M19.5 66 L19.5 61 C19.5 50 24.5 46.5 32 46.5 C38.5 46.5 43 50.5 44.5 57 C42 60 41 63 41 66 Z" fill="#fff"/>
  <!-- child, tucked under the adult's arm -->
  <circle cx="48" cy="52.5" r="5.5" fill="#fff"/>
  <path d="M42.5 66 C42.5 62.5 44 60.5 48 60.5 C52 60.5 54.5 63 54.5 66 Z" fill="#fff"/>
  <!-- tree -->
  <g stroke="#fff" stroke-width="2.6" stroke-linecap="round" fill="none">
    <path d="M65 66 L65 42"/>
    <path d="M65 56 L56.5 47"/>
    <path d="M65 52 L73.5 43"/>
    <path d="M65 61 L58.5 56"/>
  </g>
  <g fill="#fff">
    <ellipse cx="51.5" cy="44" rx="3.6" ry="5.8" transform="rotate(-48 51.5 44)"/>
    <ellipse cx="57" cy="33" rx="3.6" ry="5.8" transform="rotate(-24 57 33)"/>
    <ellipse cx="65" cy="28.5" rx="3.6" ry="6" transform="rotate(0 65 28.5)"/>
    <ellipse cx="73" cy="33" rx="3.6" ry="5.8" transform="rotate(24 73 33)"/>
    <ellipse cx="78.5" cy="44" rx="3.6" ry="5.8" transform="rotate(48 78.5 44)"/>
  </g>
  <!-- ground swoosh -->
  <path d="M13 70 C34 59 66 59 87 70 L87 77 C66 65.5 34 65.5 13 77 Z" fill="#fff" opacity="0.95"/>
</svg>
